HIERARCHY
ROOT hip
{
	OFFSET 0.000000 0.000000 0.000000 
	CHANNELS 6 Xposition Yposition Zposition Xrotation Zrotation Yrotation
	JOINT abdomen
	{
		OFFSET 0.000000 3.402643 0.000000 
		CHANNELS 3 Xrotation Zrotation Yrotation
		JOINT chest
		{
			OFFSET 0.000000 8.438565 -0.680529 
			CHANNELS 3 Xrotation Zrotation Yrotation
			JOINT neck
			{
				OFFSET 0.000000 10.207942 -0.272212 
				CHANNELS 3 Xrotation Zrotation Yrotation
				JOINT head
				{
					OFFSET 0.000000 3.130431 0.000000 
					CHANNELS 3 Xrotation Zrotation Yrotation
					End Site
					{
						OFFSET 0.000000 3.130435 0.000000 
					}
				}
			}
			JOINT lCollar
			{
				OFFSET 3.470700 6.669187 -0.816635 
				CHANNELS 3 Yrotation Zrotation Xrotation
				JOINT lShldr
				{
					OFFSET 3.198488 0.000000 0.000000 
					CHANNELS 3 Zrotation Yrotation Xrotation
					JOINT lForeArm
					{
						OFFSET 10.139888 0.000000 0.000000 
						CHANNELS 3 Yrotation Zrotation Xrotation
						JOINT lHand
						{
							OFFSET 8.370511 0.000000 0.000000 
							CHANNELS 3 Zrotation Yrotation Xrotation
							End Site
							{
								OFFSET 4.083176 0.000000 0.000000 
							}
						}
					}
				}
			}
			JOINT rCollar
			{
				OFFSET -3.470700 6.669187 -0.816635 
				CHANNELS 3 Yrotation Zrotation Xrotation
				JOINT rShldr
				{
					OFFSET -3.198488 0.000000 0.000000 
					CHANNELS 3 Zrotation Yrotation Xrotation
					JOINT rForeArm
					{
						OFFSET -10.139888 0.000000 0.000000 
						CHANNELS 3 Yrotation Zrotation Xrotation
						JOINT rHand
						{
							OFFSET -8.370511 0.000000 0.000000 
							CHANNELS 3 Zrotation Yrotation Xrotation
							End Site
							{
								OFFSET -4.083176 0.000000 0.000000 
							}
						}
					}
				}
			}
		}
	}
	JOINT lThigh
	{
		OFFSET 5.308129 -1.633274 1.361059 
		CHANNELS 3 Xrotation Zrotation Yrotation
		JOINT lShin
		{
			OFFSET -2.041588 -20.007561 0.000000 
			CHANNELS 3 Xrotation Zrotation Yrotation
			JOINT lFoot
			{
				OFFSET 0.000000 -19.190928 -1.224953 
				CHANNELS 3 Xrotation Yrotation Zrotation
				End Site
				{
					OFFSET 0.000000 -2.449906 4.627600 
				}
			}
		}
	}
	JOINT rThigh
	{
		OFFSET -5.308129 -1.633274 1.361059 
		CHANNELS 3 Xrotation Zrotation Yrotation
		JOINT rShin
		{
			OFFSET 2.041588 -20.007561 0.000000 
			CHANNELS 3 Xrotation Zrotation Yrotation
			JOINT rFoot
			{
				OFFSET 0.000000 -19.190928 -1.224953 
				CHANNELS 3 Xrotation Yrotation Zrotation
				End Site
				{
					OFFSET 0.000000 -2.449906 4.627600 
				}
			}
		}
	}
}
MOTION
Frames: 19
Frame Time: 0.033333
-66.440331 31.658298 94.298149 162.050781 -177.509766 -2.900815 29.636618 -8.088152 -5.170228 -35.644535 6.748048 1.318360 51.553619 8.070152 2.616707 -77.822266 8.164062 -53.564453 2.000000 -2.000000 0.000000 -59.697266 41.347652 -0.732422 -63.165611 -1.222143 -2.389908 -33.939587 36.735870 -15.981647 -2.000000 2.000000 0.000000 41.914063 6.083984 -54.588810 73.568336 0.212494 -2.859412 47.678593 -79.739532 -73.988144 -88.779572 -2.539761 5.499455 62.670647 -2.799398 -5.638199 6.678164 -0.650445 -0.582309 -90.542870 -15.517442 1.824648 63.512524 2.343731 4.850691 6.466491 12.054406 -6.280872 
-66.412331 31.620689 94.267487 162.402344 -177.509766 -2.744565 29.636618 -8.088152 -5.170228 -36.005859 6.572266 1.651508 51.553619 8.070152 2.616707 -78.027344 7.246093 -53.797592 2.000000 -2.000000 0.000000 -59.404301 41.279297 -0.351563 -63.165611 -1.222143 -2.389908 -33.658699 37.224552 -15.823576 -2.000000 2.000000 0.000000 42.626953 5.917969 -55.067348 73.392830 0.213059 -2.869157 51.398335 -79.738670 -78.321213 -88.585091 -2.705729 5.469948 62.670647 -2.799396 -5.638198 6.462962 -0.659586 -0.750405 -90.379700 -15.703061 1.972683 63.689224 2.314368 4.837524 6.325196 12.098259 -6.223135 
-66.385361 31.605644 94.269920 162.568359 -177.343750 -2.519984 29.636618 -8.088152 -5.170228 -36.357422 6.220703 2.012777 51.553619 8.070152 2.616707 -78.046875 6.298827 -54.023438 2.000000 -2.000000 0.000000 -58.710934 41.318359 0.475197 -63.353489 -1.070691 -2.476946 -32.954632 38.060349 -15.222086 -2.000000 2.000000 0.000000 42.978516 5.781250 -55.380856 73.221970 0.213467 -3.045140 49.645321 -79.605980 -76.927567 -88.408119 -2.725049 5.622241 62.837944 -2.808165 -5.618642 6.477960 -0.636410 -0.702015 -90.379700 -15.703062 1.972687 63.865547 2.324131 4.837907 6.094923 12.236161 -6.222201 
-66.338158 31.567923 94.304184 162.753922 -177.333984 -2.353970 29.636618 -8.088152 -5.170228 -36.708988 6.044922 2.167969 51.553619 8.070152 2.616707 -77.910156 5.341796 -54.082035 2.000000 -2.000000 0.000000 -58.017582 41.250004 0.410156 -63.341393 -1.222143 -2.389908 -33.019669 39.235600 -15.281658 -2.000000 2.000000 0.000000 43.984375 5.546875 -55.770538 72.870964 0.204846 -3.065195 45.171211 -79.019127 -73.591125 -88.231094 -2.900736 5.629814 62.670666 -2.798396 -5.637623 6.589048 -0.742611 -0.959493 -90.215721 -15.877825 2.104377 63.865028 2.294888 4.849400 6.239259 12.007501 -5.874377 
-66.284927 31.537830 94.355446 162.929703 -177.333984 -2.187954 29.636618 -8.088152 -5.170228 -36.884766 5.869141 2.529297 51.553619 8.070152 2.616707 -77.255859 4.228516 -53.984379 2.000000 -2.000000 0.000000 -57.363281 41.386719 0.546874 -63.341125 -1.221576 -2.380163 -32.340553 39.965069 -14.834650 -2.000000 2.000000 0.000000 44.521481 5.361329 -55.390625 72.865227 0.163748 -2.862231 41.002159 -78.175240 -70.515228 -88.055809 -2.900683 5.599744 62.494884 -2.837384 -5.616645 6.800825 -0.770149 -0.792421 -90.092880 -15.937294 2.625469 63.886845 2.470632 4.801854 6.202875 11.959932 -5.723601 
-66.228798 31.575438 94.381126 163.281265 -177.333984 -2.031704 29.636618 -8.088152 -5.170228 -37.236328 5.869141 2.481468 51.553619 8.070152 2.616707 -76.259766 3.203125 -53.290478 2.000000 -2.000000 0.000000 -56.669922 41.767578 1.044921 -63.529255 -1.080440 -2.476379 -31.944208 41.144264 -14.727437 -2.000000 2.000000 0.000000 44.775391 4.980468 -54.716797 73.220276 0.375821 -2.977081 37.206608 -77.461121 -67.043404 -87.702675 -3.076836 5.585921 62.319233 -2.827579 -5.596307 6.977006 -0.947263 -0.692781 -89.692345 -16.054119 2.121376 63.864681 2.294885 4.859030 6.293447 12.051591 -6.050709 
-66.161453 31.643251 94.361801 163.457047 -177.324219 -1.865690 29.636618 -8.088152 -5.170228 -37.236328 5.869141 2.481468 51.553619 8.070152 2.616707 -74.746094 2.138672 -52.265255 2.000000 -2.000000 0.000000 -56.464844 42.050781 0.504587 -63.705036 -1.080440 -2.476379 -31.280924 42.246296 -14.255226 -2.000000 2.000000 0.000000 44.912109 4.580079 -53.290237 74.271187 0.231428 -2.848538 35.558109 -76.381058 -65.391907 -87.366478 -3.213176 5.152632 62.167404 -3.296291 -5.380474 7.173776 -0.732788 -0.726469 -89.346741 -16.239283 2.253589 63.865028 2.294867 4.849388 6.293015 12.240366 -6.031472 
-66.088440 31.688496 94.300812 163.798843 -177.158203 -1.475093 29.636618 -8.088152 -5.170228 -37.412109 6.220703 2.247152 51.553619 8.070152 2.616707 -72.353516 1.152344 -50.800777 2.000000 -2.000000 0.000000 -56.240234 42.539059 0.156249 -64.056053 -1.089056 -2.456321 -30.164595 43.304714 -13.646605 -2.000000 2.000000 0.000000 45.039063 4.208984 -51.415302 75.315018 0.229168 -2.809556 33.244556 -75.281914 -62.906303 -87.160248 -3.574278 5.296770 62.341984 -3.198503 -5.455405 7.201733 -0.820878 -0.508605 -89.180267 -16.434383 2.387519 64.041359 2.265494 4.845672 5.922830 12.247540 -6.048646 
-66.001183 31.816481 94.183250 163.974625 -177.148438 -1.309080 29.636618 -8.088152 -5.170228 -37.236328 6.572266 2.042133 51.553619 8.070152 2.616707 -69.267578 0.058594 -48.544914 2.000000 -2.000000 0.000000 -56.289063 43.017578 -0.703124 -64.770996 -0.927286 -2.534181 -28.332331 43.804493 -12.345580 -2.000000 2.000000 0.000000 44.902344 3.623047 -49.316406 76.389809 0.074310 -2.838071 31.068909 -74.445000 -60.465580 -86.795975 -3.594415 5.442190 62.341801 -3.180058 -5.464034 7.197582 -0.852847 -0.508256 -88.618477 -16.601213 2.067454 64.215729 2.265591 4.898033 5.930132 12.229460 -6.076181 
-65.909187 31.952099 94.038361 164.326187 -177.148438 -1.152830 29.636618 -8.088152 -5.170228 -37.236328 7.089844 1.436752 51.553619 8.070152 2.616707 -65.693359 -1.445313 -46.142582 2.000000 -2.000000 0.000000 -56.025391 43.544922 -1.621093 -66.349136 -0.762799 -2.397075 -24.632267 43.639561 -10.384724 -2.000000 2.000000 0.000000 44.658203 3.173828 -47.060547 77.612381 0.273249 -2.895010 29.299784 -73.462807 -58.646484 -86.298233 -3.564759 5.199306 62.518143 -3.179101 -5.469261 7.171339 -0.954870 -0.550283 -88.114838 -16.611473 2.296559 64.402260 2.269778 4.886240 5.756167 12.263626 -5.874692 
-65.800308 32.117928 93.854607 164.677750 -177.119141 -0.996585 29.636618 -8.088152 -5.170228 -37.080078 7.792969 0.839844 51.553619 8.070152 2.616707 -61.630859 -3.359375 -43.154301 2.000000 -2.000000 0.000000 -55.566406 43.662109 -2.109374 -68.834534 -0.636508 -2.580434 -18.345728 42.844948 -6.567318 -2.000000 2.000000 0.000000 44.335938 2.753906 -44.824219 78.846397 0.300083 -3.020574 27.040241 -72.469864 -56.100857 -85.736443 -3.584320 5.348348 62.671486 -2.808074 -5.614351 6.942574 -1.072379 -0.752606 -87.569778 -16.600649 2.488353 64.555847 2.226465 4.698637 5.227214 12.219791 -4.977153 
-65.698242 32.321239 93.632889 164.863297 -177.285156 -0.869603 29.636618 -8.088152 -5.170228 -36.718750 8.486329 0.274879 51.553619 8.070152 2.616707 -57.421871 -5.507812 -40.245075 2.000000 -2.000000 0.000000 -55.791012 44.140621 -3.489292 -71.975403 -0.853376 -2.440697 -13.833582 40.984604 -4.102528 -2.000000 2.000000 0.000000 44.248047 2.285156 -41.708595 80.268242 -0.019561 -3.244399 26.061710 -71.642471 -54.984070 -85.010643 -3.750312 5.271592 63.006748 -3.120685 -5.526116 6.854586 -1.032471 -0.516495 -87.026695 -16.796553 2.331817 64.929306 2.353392 4.679727 5.010257 12.190494 -5.380692 
-65.579521 32.509628 93.401230 165.214859 -177.285156 -0.713353 29.636618 -8.088152 -5.170228 -36.572269 9.365234 -0.341797 51.553619 8.070152 2.616707 -53.183598 -7.998045 -37.285160 2.000000 -2.000000 0.000000 -56.289063 44.863285 -4.387639 -75.522758 -0.409446 -2.544753 -11.420003 38.312191 -3.880929 -2.000000 2.000000 0.000000 43.896484 1.582031 -38.632545 81.671722 0.160044 -3.136261 25.529884 -70.320824 -53.964691 -84.511833 -3.564771 5.213195 63.210041 -2.759223 -5.630638 6.621051 -1.121858 -0.516427 -86.461067 -16.767244 2.006745 65.272202 2.158106 4.915519 4.901337 12.081715 -5.416074 
-65.461830 32.713058 93.149895 165.566422 -177.285156 -0.732884 29.636618 -8.088152 -5.170228 -36.386719 10.234375 -1.123046 51.553619 8.070152 2.616707 -48.769535 -10.810546 -34.345707 2.000000 -2.000000 0.000000 -57.402344 46.054688 -5.634766 -79.764366 -0.133511 -2.678148 -10.329708 34.928814 -4.904608 -2.000000 2.000000 0.000000 43.671875 0.869141 -35.634766 83.088005 -0.170870 -3.165123 25.005007 -69.392982 -53.000320 -83.808746 -3.545039 4.956942 63.552101 -2.739677 -5.657251 6.573321 -1.192948 -0.723171 -85.726112 -16.757236 1.846107 65.614891 2.166917 4.918803 4.899854 12.068636 -5.410258 
-65.346466 32.908855 92.900185 165.917969 -177.451172 -0.615669 28.143831 -8.284050 -5.900475 -36.044918 11.113282 -1.863352 51.553619 8.070152 2.616707 -44.453129 -13.720702 -31.494139 2.000000 -2.000000 0.000000 -58.837894 46.669922 -6.689452 -83.989647 -0.030081 -2.918849 -10.827634 32.756966 -7.217363 -2.000000 2.000000 0.000000 43.769527 0.566406 -32.216797 84.668388 -0.154752 -3.105526 23.969280 -68.372757 -51.415222 -83.102692 -3.711510 4.872344 63.718979 -2.720195 -5.649939 6.292958 -1.284880 -0.346721 -85.000938 -16.580708 1.839716 65.759697 1.757797 4.879728 4.835508 11.988425 -5.030156 
-65.228195 33.112282 92.640282 166.269531 -177.441406 -0.459420 26.640301 -8.589391 -6.422917 -35.878906 11.982421 -2.634691 51.553619 8.070152 2.616707 -40.400391 -16.816404 -28.662109 2.000000 -2.000000 0.000000 -60.244141 47.353516 -7.502580 -88.395531 0.240354 -2.641232 -13.632326 32.014893 -11.352970 -2.000000 2.000000 0.000000 43.730469 -0.175781 -28.906248 86.453720 -0.284669 -3.396580 23.037683 -67.327950 -50.005276 -82.407364 -3.525430 4.816540 64.061569 -2.691220 -5.661036 6.059942 -1.059096 -0.604995 -84.095833 -16.561846 1.793080 66.098190 1.738265 4.719028 4.350770 11.867252 -4.738685 
-65.118614 33.300556 92.403275 166.796875 -177.607422 -0.342205 25.302887 -8.898240 -6.937719 -35.703129 12.685547 -3.378906 51.553619 8.070152 2.616707 -36.513676 -19.921873 -26.240236 2.000000 -2.000000 0.000000 -61.513676 47.597660 -7.802735 -92.950409 -0.031358 -2.772102 -16.762436 32.087864 -15.785623 -2.000000 2.000000 0.000000 44.023434 -1.250000 -25.537109 88.370369 -0.260304 -3.140947 24.503431 -66.576416 -50.858631 -81.721878 -3.506048 4.595586 64.412552 -2.642197 -5.709170 5.895910 -1.219250 -0.617361 -83.393524 -16.561810 1.798873 66.283890 1.718770 4.720544 4.582404 11.795318 -4.773379 
-65.004623 33.488945 92.165138 167.148438 -177.607422 -0.185955 23.958078 -9.074725 -7.358156 -35.546875 13.564452 -3.964843 51.553619 8.070152 2.616707 -32.841801 -22.851561 -23.945316 2.000000 -2.000000 0.000000 -62.958988 47.812496 -7.509767 -96.310165 0.621580 -2.477624 -22.060282 31.604979 -21.274641 -2.000000 2.000000 0.000000 44.482418 -2.275391 -22.148439 90.668228 -0.751554 -2.934732 24.743082 -65.663055 -49.916561 -81.007179 -3.496228 4.517680 64.754822 -2.642205 -5.727962 5.825638 -1.228369 -0.078063 -82.489021 -16.386494 1.790982 66.462654 1.718845 4.916910 4.702911 11.479966 -4.661897 
-64.903946 33.647133 91.965294 167.685562 -177.773438 -0.244520 22.806770 -9.303131 -7.975037 -35.371094 14.267578 -4.511718 51.553619 8.070152 2.616707 -29.560551 -25.458982 -21.875002 2.000000 -2.000000 0.000000 -64.882813 48.037109 -7.138671 -98.596542 0.228482 -2.845846 -26.145971 30.352791 -25.670155 -2.000000 2.000000 0.000000 44.960938 -3.476563 -18.916611 93.139641 -0.886352 -2.971863 25.666103 -64.760254 -49.775970 -80.135864 -3.486357 4.423901 64.911362 -2.613305 -5.732924 5.665517 -1.223678 -0.098696 -81.800636 -16.249531 2.382495 66.690437 2.158032 4.429544 4.648324 11.592093 -4.401922 
